<?xml version="1.0" standalone="no"?>
<!DOCTYPE svg PUBLIC "-//W3C//DTD SVG 20010904//EN"
 "http://www.w3.org/TR/2001/REC-SVG-20010904/DTD/svg10.dtd">
<svg version="1.0" xmlns="http://www.w3.org/2000/svg"
 width="787.000000pt" height="717.000000pt" viewBox="0 0 787.000000 717.000000"
 preserveAspectRatio="xMidYMid meet">
<metadata>
Created by potrace 1.16, written by Peter Selinger 2001-2019
</metadata>
<g transform="translate(0.000000,717.000000) scale(0.100000,-0.100000)"
fill="#000000" stroke="none">
<path d="M3320 7085 c-618 -78 -1139 -272 -1640 -613 -178 -121 -294 -217
-464 -382 -532 -520 -879 -1160 -1015 -1870 -46 -243 -55 -345 -55 -620 1
-367 28 -596 109 -905 165 -631 509 -1197 1020 -1675 515 -482 1197 -809 1915
-916 166 -25 629 -30 810 -10 847 97 1646 506 2213 1134 507 561 802 1188 898
1912 38 284 35 663 -7 945 -41 281 -125 575 -244 859 -249 594 -719 1165
-1262 1533 -469 318 -956 509 -1513 593 -185 29 -594 36 -765 15z m539 -345
c171 -12 276 -29 468 -76 235 -57 486 -152 678 -254 67 -36 94 -46 107 -39 58
33 365 70 380 46 4 -7 8 -75 8 -153 l0 -141 39 -31 c68 -55 236 -203 239 -211
1 -5 -46 -11 -105 -14 -140 -8 -176 -19 -233 -73 -56 -52 -80 -97 -80 -149 0
-32 3 -36 18 -30 9 5 52 20 94 35 42 15 102 44 132 65 31 21 59 35 63 32 12
-13 -84 -92 -168 -138 -88 -48 -131 -91 -112 -110 7 -7 43 -14 81 -17 128 -9
221 43 322 179 33 44 64 88 69 97 9 15 12 14 37 -8 32 -30 192 -218 205 -242
7 -12 -5 -35 -47 -95 -128 -178 -253 -291 -408 -369 -88 -44 -222 -91 -232
-81 -3 3 27 66 66 141 39 75 70 143 68 153 -6 32 -81 46 -248 47 -153 1 -156
1 -208 -28 -97 -54 -178 -171 -197 -283 -3 -23 -12 -44 -20 -46 -7 -3 -39 -1
-71 4 -33 5 -165 12 -294 15 -197 5 -250 4 -324 -10 -171 -33 -292 -103 -387
-225 l-49 -63 0 58 c0 33 5 76 11 97 12 44 59 102 101 123 17 9 64 50 106 92
161 159 199 181 362 208 86 14 110 28 110 65 0 73 -186 65 -350 -14 -47 -23
-88 -55 -150 -118 -76 -77 -149 -129 -181 -129 -8 0 -10 27 -7 93 3 85 7 99
42 162 81 149 183 262 317 352 42 29 79 59 83 68 8 22 -10 54 -37 64 -67 25
-277 -126 -380 -272 -45 -65 -54 -61 -42 19 4 29 23 68 52 112 116 169 135
201 153 261 23 72 25 156 8 231 -13 59 -77 193 -94 198 -13 3 -200 -184 -264
-265 -45 -57 -60 -65 -60 -32 0 32 54 126 120 209 l59 74 -32 58 c-17 31 -28
61 -24 65 4 4 25 -13 46 -37 l37 -44 17 24 c28 40 20 61 -49 149 l-67 84 -43
-49 c-83 -92 -192 -242 -223 -306 -18 -35 -39 -102 -48 -147 -29 -148 7 -268
127 -426 73 -95 87 -120 90 -160 5 -67 1 -70 -29 -24 -62 97 -263 267 -337
285 -35 9 -72 -3 -84 -27 -17 -30 5 -57 97 -121 122 -87 238 -220 313 -362 27
-52 30 -67 30 -147 0 -55 -4 -89 -10 -89 -34 0 -90 40 -168 118 -49 49 -113
103 -143 119 -164 94 -398 100 -376 11 8 -31 19 -36 131 -54 135 -22 195 -55
301 -167 50 -51 110 -106 135 -122 98 -60 118 -92 126 -202 l5 -78 -22 30
c-45 61 -147 151 -204 182 -125 66 -177 76 -420 80 -158 3 -256 0 -349 -11
-71 -8 -133 -13 -137 -11 -4 3 -10 25 -13 50 -10 63 -70 177 -115 218 -21 19
-60 48 -87 63 -48 29 -51 29 -204 28 -160 -1 -236 -13 -247 -40 -3 -9 24 -76
61 -150 36 -75 66 -139 66 -144 0 -13 -93 16 -177 55 -100 46 -196 113 -291
201 -78 72 -222 249 -222 272 0 12 230 286 235 280 2 -2 26 -37 53 -79 96
-143 204 -219 312 -219 68 0 130 16 130 35 0 18 -70 74 -150 118 -68 37 -140
97 -140 116 0 16 1 15 60 -29 32 -24 85 -50 134 -66 45 -14 87 -31 94 -37 10
-8 16 -7 23 4 19 29 -17 114 -69 167 -59 58 -110 75 -250 80 l-122 5 37 33
c21 19 89 76 151 127 l113 92 -6 126 c-10 176 -12 173 124 167 58 -3 147 -16
196 -28 l91 -22 129 65 c209 104 389 170 633 232 121 31 338 70 437 78 90 8
339 6 474 -3z m-2701 -1447 c188 -235 371 -364 642 -451 247 -80 352 -88 599
-47 82 13 213 27 290 31 l141 7 0 -128 c0 -105 3 -132 17 -147 21 -24 46 -23
69 3 16 18 20 40 22 144 l4 123 41 -5 c156 -18 248 -62 352 -167 88 -90 135
-162 171 -262 21 -57 24 -82 24 -209 0 -119 -3 -145 -14 -145 -25 0 -76 51
-132 130 -123 177 -244 238 -504 256 -197 14 -362 -32 -485 -135 -49 -41 -51
-42 -100 -34 -27 4 -108 8 -180 7 -151 -1 -274 -22 -507 -88 -227 -64 -271
-71 -473 -71 -153 0 -193 4 -265 22 -77 21 -86 21 -108 7 -33 -22 -26 -62 16
-90 37 -25 181 -62 278 -71 35 -3 64 -9 64 -13 0 -10 -165 -85 -229 -104 -85
-25 -139 -21 -210 16 -65 33 -82 33 -105 -5 -25 -39 61 -115 156 -137 116 -28
227 4 503 145 306 156 518 227 719 242 l81 5 -36 -30 c-19 -17 -48 -49 -64
-72 l-29 -42 23 -19 c37 -30 127 -52 187 -46 103 11 132 30 300 209 40 41 97
90 127 107 51 29 161 60 172 49 3 -3 -15 -36 -40 -74 -53 -80 -82 -167 -92
-268 -9 -109 -10 -109 -62 -85 -24 11 -46 17 -49 14 -9 -9 27 -53 62 -75 45
-27 46 -40 2 -33 -50 8 -119 -26 -152 -76 -38 -57 -46 -167 -17 -232 47 -105
128 -160 236 -160 77 0 121 16 177 67 64 58 94 124 95 209 0 83 -24 131 -87
172 -36 25 -43 26 -89 17 -27 -6 -49 -7 -49 -3 0 5 20 22 45 39 42 29 72 66
62 76 -2 2 -24 -4 -48 -15 -24 -11 -47 -17 -51 -15 -22 14 2 186 37 261 39 86
153 194 190 179 12 -4 15 -30 15 -135 0 -137 7 -161 50 -161 39 0 50 36 50
167 0 92 3 123 13 123 24 0 114 -48 151 -81 21 -18 62 -67 92 -109 29 -41 93
-121 143 -178 106 -119 118 -141 127 -218 l7 -57 -29 8 c-16 4 -66 15 -110 24
-136 28 -193 90 -219 242 -19 105 -40 128 -85 91 -47 -38 -32 -207 26 -295 34
-51 101 -115 144 -136 19 -10 67 -29 105 -41 102 -33 155 -100 155 -194 l0
-26 119 0 118 0 6 55 c10 95 61 150 161 174 71 17 122 46 183 104 72 68 102
132 110 234 7 98 -8 133 -57 133 -16 0 -31 -4 -34 -9 -3 -5 -11 -43 -17 -84
-22 -151 -89 -222 -236 -252 -48 -9 -97 -22 -107 -27 -18 -10 -19 -7 -13 51 7
78 36 128 139 240 45 47 99 113 121 146 60 91 116 144 182 176 33 16 66 29 73
29 9 0 12 -31 12 -123 0 -131 11 -167 50 -167 43 0 50 24 50 161 0 123 1 129
20 129 49 0 131 -71 168 -145 30 -61 52 -143 52 -197 l0 -48 -43 0 c-31 0 -49
-6 -61 -19 -20 -22 -14 -41 12 -41 10 0 35 -9 57 -20 l39 -20 43 21 c38 18 49
19 93 10 28 -6 53 -11 55 -11 2 0 1 9 -2 21 -7 26 -59 59 -95 59 -25 0 -26 3
-32 63 -14 126 -41 204 -107 305 -21 31 -21 32 -1 32 39 0 148 -40 195 -71 27
-17 69 -57 95 -87 150 -177 193 -206 312 -207 60 0 85 5 125 25 28 14 51 33
53 42 2 11 -20 43 -55 79 l-58 62 86 -6 c182 -14 357 -72 678 -226 324 -156
389 -178 493 -168 105 9 208 75 208 133 0 44 -31 47 -116 13 -65 -26 -88 -31
-134 -26 -62 5 -184 50 -257 93 l-48 29 65 7 c93 11 261 55 290 76 35 26 38
66 7 87 -23 15 -31 14 -108 -7 -72 -19 -109 -22 -259 -23 -202 0 -265 10 -471
71 -185 55 -218 62 -359 80 -137 17 -217 18 -310 3 l-70 -10 -57 47 c-118 97
-228 130 -428 128 -292 -3 -427 -64 -562 -256 -56 -80 -104 -128 -129 -128
-11 0 -14 27 -14 150 0 128 3 157 21 207 35 91 86 170 165 253 105 109 187
149 362 174 l42 6 0 -115 c0 -132 13 -175 55 -175 44 0 55 32 55 163 l0 119
163 -5 c100 -3 211 -13 292 -27 195 -33 304 -26 505 33 187 55 277 91 373 148
88 53 234 192 334 317 41 50 77 92 82 92 4 0 34 -42 68 -92 224 -342 382 -728
457 -1117 43 -220 51 -320 50 -616 0 -238 -3 -302 -22 -425 -113 -731 -455
-1370 -1007 -1879 -230 -212 -540 -418 -811 -539 -300 -135 -746 -262 -917
-262 -34 0 -102 -7 -152 -15 -103 -16 -235 -11 -235 11 0 21 67 70 166 119
104 53 98 52 310 26 111 -14 294 -2 410 28 527 135 918 546 996 1048 6 40 8
76 4 80 -12 12 -255 -15 -376 -43 -318 -71 -572 -187 -832 -381 -212 -158
-356 -323 -452 -519 l-55 -111 -73 -43 c-40 -24 -76 -45 -80 -47 -5 -2 -8 51
-8 119 l0 123 39 28 c52 36 91 114 91 182 0 68 -38 145 -93 185 -63 47 -113
36 -177 -36 -43 -49 -60 -93 -60 -151 1 -75 44 -148 122 -206 14 -11 16 -27
10 -134 l-7 -123 -68 41 c-65 39 -69 44 -113 132 -99 198 -212 338 -387 479
-203 163 -448 303 -645 367 -213 70 -417 111 -555 111 l-90 0 7 -59 c49 -431
392 -845 841 -1014 202 -77 442 -105 623 -73 50 9 107 16 125 16 57 0 267
-111 267 -141 0 -27 -39 -30 -161 -14 -62 8 -133 15 -158 15 -70 1 -319 53
-493 104 -628 183 -1177 553 -1593 1071 -120 149 -310 445 -302 469 2 6 -15
49 -38 96 -377 756 -428 1646 -139 2448 48 132 167 389 230 495 63 105 157
247 165 247 4 0 39 -39 77 -87z m3752 -3766 c0 -181 -127 -346 -371 -481 -112
-61 -116 -46 -24 91 73 108 101 175 115 270 5 36 12 68 15 71 15 16 26 -28 21
-89 -7 -81 -26 -137 -72 -212 -20 -32 -34 -61 -31 -64 9 -8 92 53 162 119 78
72 130 168 140 255 8 75 11 83 30 83 11 0 15 -11 15 -43z m-2556 1 c2 -13 9
-50 15 -83 17 -93 53 -155 134 -232 72 -68 173 -145 166 -126 -2 5 -25 52 -52
104 -38 77 -48 107 -53 166 -12 127 19 141 37 17 12 -83 48 -164 123 -274 79
-116 76 -130 -17 -84 -233 117 -371 281 -384 457 -5 67 -4 77 10 77 9 0 18
-10 21 -22z m1813 -514 c-3 -40 -14 -92 -25 -116 -24 -55 -101 -148 -141 -171
-47 -27 -39 -2 21 68 62 72 94 138 107 223 11 70 18 85 33 76 7 -4 9 -33 5
-80z m-1067 -18 c13 -82 42 -142 110 -226 27 -35 50 -67 50 -72 0 -20 -26 -4
-80 50 -75 75 -110 144 -117 232 -10 123 18 135 37 16z"/>
<path d="M1844 6232 c8 -139 24 -210 71 -307 49 -103 129 -186 223 -232 71
-36 81 -38 167 -37 56 0 103 6 124 15 l34 15 -51 61 c-56 66 -124 123 -247
205 -61 41 -90 68 -122 117 -24 34 -43 69 -43 77 0 7 35 -22 78 -64 52 -53
107 -96 171 -133 52 -29 127 -85 168 -123 92 -86 98 -83 98 57 0 92 -3 108
-29 161 -70 142 -247 251 -461 284 -39 6 -97 13 -129 17 l-59 6 7 -119z"/>
<path d="M2637 6314 c-27 -169 -17 -305 29 -395 50 -100 175 -177 270 -166 93
10 125 59 125 194 0 73 -4 94 -27 142 -57 116 -227 244 -342 258 l-49 5 -6
-38z"/>
<path d="M4525 6329 c-122 -50 -241 -153 -285 -247 -24 -50 -38 -161 -25 -209
l7 -28 13 30 c20 47 52 74 129 109 39 18 85 45 101 60 18 17 31 23 33 16 9
-25 -37 -67 -117 -106 -90 -43 -141 -90 -141 -128 0 -44 50 -76 119 -76 101 0
199 69 253 178 32 64 33 72 36 202 2 74 -1 153 -5 175 -8 35 -12 40 -38 42
-17 1 -52 -7 -80 -18z"/>
<path d="M5325 6340 c-105 -9 -244 -48 -330 -93 -75 -39 -173 -136 -205 -202
-22 -43 -25 -64 -25 -157 0 -64 4 -111 11 -118 8 -8 36 10 100 66 49 42 125
97 169 122 52 30 109 74 163 128 87 88 102 90 51 8 -46 -73 -74 -99 -179 -169
-98 -64 -255 -216 -247 -238 2 -7 23 -17 48 -24 165 -43 345 40 453 210 62 99
89 199 101 375 6 84 5 102 -6 100 -8 0 -54 -4 -104 -8z"/>
<path d="M4640 5762 c-8 -3 -37 -25 -65 -50 -66 -59 -130 -87 -241 -107 -113
-19 -148 -30 -201 -67 -43 -29 -93 -91 -93 -115 0 -16 40 -53 56 -53 7 0 38
20 69 45 67 55 79 60 197 80 55 9 117 28 153 45 74 36 172 112 187 145 20 45
-18 91 -62 77z"/>
<path d="M2584 5736 c-9 -38 3 -61 62 -115 75 -68 162 -108 266 -122 91 -12
142 -34 202 -85 45 -39 89 -45 106 -15 17 32 12 49 -27 92 -56 61 -109 87
-235 114 -140 29 -161 37 -217 83 -69 58 -94 72 -123 72 -21 0 -29 -6 -34 -24z"/>
<path d="M1980 5589 c-25 -46 17 -96 145 -174 73 -44 103 -52 236 -65 98 -11
106 -13 139 -45 45 -44 78 -56 124 -45 43 10 62 24 82 61 25 49 18 97 -20 135
-29 29 -41 34 -81 34 -30 0 -61 -8 -87 -22 l-39 -22 -115 17 c-132 19 -175 36
-263 101 -69 50 -104 58 -121 25z"/>
<path d="M5184 5571 c-93 -73 -141 -91 -329 -120 -55 -8 -64 -7 -103 16 -104
61 -216 -13 -191 -127 13 -58 74 -92 146 -82 12 2 41 20 65 41 40 35 49 38
143 50 54 6 123 18 151 27 97 28 234 136 234 184 0 24 -26 50 -49 50 -10 0
-40 -17 -67 -39z"/>
<path d="M4681 4759 c-52 -11 -83 -48 -89 -108 -4 -47 -2 -53 31 -86 28 -28
42 -35 76 -35 80 0 121 40 121 119 0 72 -67 126 -139 110z"/>
<path d="M2496 4729 c-43 -37 -54 -81 -33 -132 22 -52 56 -71 118 -65 74 7
104 40 104 114 0 52 -3 58 -35 85 -49 41 -106 40 -154 -2z"/>
<path d="M948 4653 c-59 -5 -60 -13 -18 -122 75 -194 207 -321 366 -350 28 -5
82 -6 129 -1 44 5 83 9 88 9 14 2 7 24 -18 57 -34 44 -50 52 -136 64 -92 13
-147 38 -198 89 -36 36 -81 107 -81 128 0 4 30 -23 66 -61 68 -70 128 -105
177 -106 43 0 45 26 8 93 -17 33 -30 61 -27 64 8 8 44 -39 68 -89 19 -43 31
-54 74 -73 28 -13 69 -39 91 -59 22 -20 44 -36 48 -36 15 0 -1 174 -19 209
-27 51 -105 124 -159 149 -77 36 -263 50 -459 35z"/>
<path d="M1724 4620 c14 -90 117 -229 200 -272 63 -33 202 -37 279 -8 33 12
56 27 54 33 -6 20 -93 46 -182 56 -88 10 -128 25 -159 60 -22 25 -19 26 20 7
16 -8 77 -19 136 -26 59 -6 121 -16 138 -22 17 -5 34 -8 37 -4 18 17 -65 119
-119 147 -35 18 -190 46 -357 66 l-54 6 7 -43z"/>
<path d="M5489 4656 c-2 -2 -62 -12 -134 -20 -168 -22 -218 -38 -269 -90 -39
-39 -75 -101 -64 -111 3 -3 22 2 42 10 21 9 82 20 135 24 54 5 112 16 129 25
40 21 59 21 42 2 -22 -28 -96 -56 -175 -67 -87 -12 -178 -45 -172 -63 7 -22
101 -45 182 -46 102 0 180 33 243 105 46 52 98 150 108 203 6 31 6 32 -28 32
-19 0 -37 -2 -39 -4z"/>
<path d="M5972 4650 c-72 -13 -145 -52 -199 -106 -63 -63 -83 -112 -83 -206 0
-43 3 -78 6 -78 3 0 25 16 48 35 23 19 68 46 99 60 44 21 58 33 66 58 12 34
70 111 78 103 3 -2 -7 -25 -22 -49 -14 -25 -30 -59 -35 -76 -9 -31 -8 -31 28
-31 58 1 112 32 180 104 68 73 89 81 51 19 -65 -107 -164 -173 -257 -173 -62
0 -109 -19 -141 -56 -32 -36 -40 -64 -18 -64 6 0 43 -5 81 -10 188 -27 366 81
464 280 41 85 71 175 60 185 -10 10 -353 14 -406 5z"/>
<path d="M1878 3920 c-26 -33 -29 -34 -60 -23 -90 31 -95 28 -48 -32 17 -21
30 -44 30 -51 0 -7 -19 -22 -42 -32 -53 -23 -103 -79 -117 -129 -16 -56 -14
-338 2 -351 16 -13 185 28 259 63 68 32 133 97 153 154 19 54 19 131 1 174
-17 40 -72 92 -111 104 -29 9 -30 12 -35 84 l-5 74 -27 -35z"/>
<path d="M5368 3945 c-1 -5 -2 -39 -3 -74 0 -62 -1 -64 -30 -74 -36 -12 -91
-61 -113 -102 -24 -45 -21 -141 7 -197 27 -57 87 -113 150 -141 47 -21 213
-66 242 -67 24 0 30 34 30 175 1 191 -28 264 -125 316 -26 13 -46 29 -46 35 0
6 16 32 35 58 20 25 31 46 26 46 -6 0 -34 -9 -63 -21 -36 -14 -54 -17 -56 -9
-7 20 -51 65 -54 55z"/>
<path d="M5776 3853 c12 -50 52 -118 99 -171 84 -94 227 -140 344 -112 28 6
51 15 51 18 0 18 -97 127 -148 167 -84 67 -166 102 -263 115 -46 5 -85 10 -86
10 -2 0 0 -12 3 -27z"/>
<path d="M1335 3852 c-28 -10 -73 -30 -100 -46 -55 -32 -225 -192 -225 -212 0
-20 78 -37 150 -32 155 11 299 131 345 286 6 21 4 22 -57 22 -35 -1 -86 -8
-113 -18z"/>
<path d="M4510 3755 c-14 -8 -33 -12 -43 -9 -40 12 -99 -84 -77 -126 11 -20
84 -32 147 -23 38 5 41 8 47 42 11 70 7 110 -13 121 -25 13 -31 12 -61 -5z"/>
<path d="M4662 3747 c-24 -26 -42 -76 -42 -118 0 -23 5 -27 38 -33 61 -10 137
-7 150 6 28 28 3 136 -36 157 -36 19 -86 13 -110 -12z"/>
<path d="M4488 3553 c-10 -3 -18 -10 -18 -16 0 -8 -4 -7 -12 1 -19 19 -56 14
-68 -8 -11 -21 2 -93 22 -117 7 -9 40 -13 95 -13 l85 0 -4 69 c-2 39 -6 72 -8
74 -8 7 -74 14 -92 10z"/>
<path d="M4640 3534 c-13 -15 -17 -105 -5 -124 8 -13 131 -13 156 0 15 9 19
22 19 63 0 29 -5 58 -12 65 -18 18 -142 16 -158 -4z"/>
<path d="M4464 3345 c-8 -19 18 -59 50 -80 13 -9 51 -23 84 -31 55 -14 63 -14
92 1 35 18 70 69 70 103 0 20 -5 22 -50 22 -48 0 -52 -2 -65 -32 l-14 -33 -13
33 c-12 32 -13 32 -81 32 -51 0 -69 -4 -73 -15z"/>
<path d="M2440 3091 c-91 -14 -179 -81 -228 -174 -23 -45 -27 -63 -27 -142 0
-78 4 -97 27 -140 33 -63 121 -148 173 -166 22 -8 76 -14 120 -13 88 0 134 17
200 75 71 63 68 82 -18 126 l-49 25 -27 -25 c-39 -36 -65 -47 -114 -47 -57 0
-103 31 -135 90 -46 86 -10 188 82 234 47 23 87 16 149 -25 l47 -31 60 37 c67
41 67 44 8 104 -59 61 -162 88 -268 72z"/>
<path d="M3061 3090 c-92 -19 -173 -89 -218 -188 -22 -46 -24 -64 -21 -141 3
-80 6 -93 39 -147 21 -34 61 -78 94 -104 l57 -45 104 -3 c117 -4 155 8 232 73
84 73 125 230 88 341 -19 59 -79 140 -125 171 -58 39 -172 58 -250 43z m159
-173 c133 -89 76 -307 -79 -307 -51 0 -90 19 -125 60 -92 109 -21 269 120 270
37 0 61 -6 84 -23z"/>
<path d="M5690 3091 c-59 -13 -115 -47 -167 -105 -60 -65 -83 -125 -83 -212 0
-208 190 -361 387 -310 35 8 80 27 102 40 38 24 81 74 81 94 0 14 -80 72 -99
72 -9 0 -36 -14 -61 -30 -110 -73 -239 -7 -248 127 -3 50 0 64 24 99 35 53 71
74 128 74 33 0 58 -7 86 -26 26 -18 47 -24 62 -20 26 6 98 63 98 76 0 19 -56
73 -99 94 -51 26 -154 39 -211 27z"/>
<path d="M828 3083 c-11 -3 -20 -19 -24 -41 -8 -39 3 -544 12 -567 8 -20 97
-29 228 -23 152 7 219 38 252 115 29 68 14 131 -45 187 l-30 29 24 29 c13 16
27 44 31 64 20 106 -41 190 -148 205 -57 8 -272 10 -300 2z m295 -155 c21 -11
22 -51 1 -72 -11 -12 -36 -16 -90 -16 l-74 0 0 40 c0 22 -1 43 -2 48 -7 19
126 20 165 0z m7 -231 c33 -17 38 -57 9 -83 -16 -15 -36 -19 -90 -19 -37 0
-72 5 -77 10 -5 6 -13 31 -16 58 l-7 47 78 0 c43 0 89 -6 103 -13z"/>
<path d="M1350 3080 c-13 -8 -15 -53 -15 -309 0 -164 4 -303 8 -308 11 -10
104 -9 114 1 5 4 9 139 11 300 3 261 2 295 -13 310 -18 18 -81 21 -105 6z"/>
<path d="M1673 3069 c-139 -69 -213 -241 -169 -392 21 -73 85 -151 156 -191
49 -28 63 -31 135 -30 103 1 167 28 230 95 68 73 95 137 95 230 0 91 -26 151
-97 223 -69 70 -93 80 -208 83 -86 3 -106 0 -142 -18z m220 -155 c45 -34 69
-80 69 -132 0 -56 -17 -95 -61 -136 -42 -40 -124 -48 -173 -18 -75 46 -104
163 -59 235 50 81 152 104 224 51z"/>
<path d="M3573 3080 l-23 -9 0 -295 c0 -335 -2 -326 78 -326 77 0 77 -1 80
180 2 90 8 158 13 155 5 -3 58 -71 119 -150 60 -79 122 -153 136 -164 33 -26
124 -29 148 -6 23 23 29 106 24 365 -4 271 0 260 -81 260 -85 0 -87 -3 -88
-143 0 -67 -4 -144 -7 -171 l-7 -50 -112 156 c-133 184 -158 208 -216 207 -23
0 -52 -4 -64 -9z"/>
<path d="M4288 3083 c-9 -2 -19 -10 -21 -18 -3 -7 -9 -137 -13 -288 l-7 -275
26 -26 c20 -20 36 -26 71 -26 68 0 76 13 76 133 0 56 3 125 6 154 l7 52 111
-146 c61 -80 116 -151 122 -159 27 -33 124 -46 160 -20 18 14 19 29 19 306 0
280 -1 292 -20 307 -19 14 -117 15 -131 1 -3 -4 -8 -85 -11 -182 l-6 -176 -57
78 c-224 306 -212 293 -275 291 -22 -1 -47 -3 -57 -6z"/>
<path d="M4993 3083 c-13 -3 -25 -14 -29 -27 -7 -30 -1 -583 7 -590 3 -4 94
-9 200 -13 235 -7 239 -6 239 70 0 29 -5 58 -12 65 -7 7 -43 12 -92 12 -45 0
-105 3 -133 6 l-53 7 0 43 0 44 109 0 c134 0 146 7 137 84 -3 27 -11 53 -18
58 -7 5 -59 7 -115 6 -112 -3 -113 -3 -113 65 l0 27 134 0 c155 0 159 2 154
81 -3 47 -6 54 -28 60 -27 8 -350 9 -387 2z"/>
<path d="M6047 3077 c-15 -10 -18 -24 -15 -72 l3 -60 80 -5 80 -5 3 -230 c3
-258 2 -255 76 -255 73 0 70 -7 76 252 l5 233 75 5 75 5 0 70 0 70 -220 3
c-169 2 -225 -1 -238 -11z"/>
<path d="M2306 2281 c-22 -23 -29 -39 -29 -71 0 -92 104 -134 175 -71 28 25
33 36 33 75 0 62 -26 88 -97 94 -49 3 -55 1 -82 -27z"/>
<path d="M2540 2210 c0 -99 0 -100 24 -100 19 0 26 7 31 30 9 43 19 44 49 5
32 -41 73 -50 61 -12 -8 26 -8 38 1 98 6 41 4 48 -17 63 -16 11 -44 16 -86 16
l-63 0 0 -100z"/>
<path d="M2799 2281 c-23 -23 -29 -38 -29 -71 0 -33 6 -48 29 -71 59 -59 171
-27 171 49 0 22 -6 31 -22 36 -35 9 -68 7 -68 -4 0 -5 -1 -13 -2 -17 -1 -5 11
-10 27 -13 l29 -5 -27 -18 c-21 -13 -32 -15 -47 -7 -31 17 -42 45 -28 74 12
29 12 28 81 26 56 -2 66 21 16 39 -57 20 -98 14 -130 -18z"/>
<path d="M3091 2296 c-7 -8 -27 -52 -46 -98 -34 -83 -34 -83 -12 -86 14 -3 27
4 35 17 19 28 72 28 97 1 18 -20 55 -28 55 -11 0 4 -14 41 -30 82 -43 102 -71
129 -99 95z"/>
<path d="M3277 2303 c-4 -3 -7 -49 -7 -100 l0 -94 28 3 c24 3 27 8 32 51 l5
47 35 -47 c26 -35 42 -48 60 -48 25 0 25 1 25 95 0 94 0 95 -25 95 -21 0 -26
-6 -33 -43 l-8 -43 -35 45 c-32 42 -60 56 -77 39z"/>
<path d="M3531 2284 c-26 -22 -31 -33 -31 -71 0 -56 11 -77 50 -93 33 -14 93
-8 116 11 24 20 -2 41 -43 33 -40 -7 -73 16 -73 51 0 30 23 47 57 44 15 -1 39
1 52 5 l25 9 -23 18 c-34 28 -93 25 -130 -7z"/>
<path d="M3995 2285 c-41 -40 -33 -62 32 -91 40 -18 53 -28 43 -34 -7 -4 -26
-3 -42 2 -33 12 -58 5 -58 -17 0 -19 39 -35 86 -35 38 0 74 29 74 59 0 20 -38
56 -71 66 -31 10 -24 35 9 29 15 -2 34 0 42 6 13 9 12 12 -4 25 -31 23 -83 19
-111 -10z"/>
<path d="M4170 2297 c0 -21 25 -38 44 -31 14 5 16 -3 16 -59 0 -78 6 -97 31
-97 17 0 19 8 19 79 l0 79 33 -2 c26 -1 32 3 32 19 0 18 -8 20 -87 23 -71 2
-88 0 -88 -11z"/>
<path d="M4418 2283 c-34 -38 -40 -59 -28 -104 24 -89 151 -93 196 -7 49 95
-95 189 -168 111z"/>
<path d="M4650 2210 l0 -100 25 0 c19 0 25 5 25 23 0 46 16 51 45 13 18 -24
36 -36 51 -36 28 0 29 3 9 34 -14 21 -14 27 1 59 33 70 -2 107 -101 107 l-55
0 0 -100z"/>
<path d="M4880 2210 l0 -100 64 0 c41 0 68 5 75 13 15 19 4 27 -40 27 -35 0
-58 14 -46 27 4 3 21 8 39 12 19 4 34 14 36 24 3 13 -4 17 -32 17 -38 0 -57
17 -35 31 8 5 29 9 47 9 25 0 32 4 32 20 0 18 -7 20 -70 20 l-70 0 0 -100z"/>
<path d="M3556 1989 c-25 -22 -46 -47 -46 -55 0 -8 10 -28 22 -44 29 -40 16
-49 -22 -16 -18 14 -36 24 -41 21 -14 -9 -69 -92 -69 -105 0 -7 14 -30 32 -52
l32 -40 20 28 c11 16 43 53 70 81 36 39 54 52 70 48 15 -3 30 7 55 36 l34 40
-39 40 c-61 63 -65 64 -118 18z"/>
<path d="M3686 1866 l-38 -33 47 -61 c27 -34 51 -62 55 -62 4 0 20 17 37 38
25 31 29 42 20 58 -16 29 -68 94 -75 94 -4 -1 -24 -16 -46 -34z"/>
<path d="M3564 1773 c-19 -21 -51 -72 -72 -112 l-37 -75 0 -172 c0 -95 3 -175
6 -179 8 -7 118 66 119 78 0 5 -20 32 -45 60 -25 29 -45 55 -45 59 0 19 22 5
66 -42 26 -27 50 -50 54 -50 5 0 49 55 81 103 4 5 12 6 18 3 14 -9 1 -35 -48
-95 -21 -26 -31 -46 -25 -48 7 -2 33 -19 60 -38 26 -19 51 -32 56 -29 12 8 10
275 -3 336 -6 29 -23 77 -37 107 -25 54 -86 131 -104 131 -5 0 -25 -17 -44
-37z"/>
<path d="M3338 1701 c-16 -27 -28 -60 -28 -73 0 -24 37 -87 83 -142 l24 -30 7
75 c4 41 12 89 18 107 10 32 8 36 -28 73 -21 21 -41 39 -44 39 -3 0 -17 -22
-32 -49z"/>
<path d="M3797 1712 l-38 -38 16 -65 c8 -35 15 -84 15 -109 l1 -45 29 35 c17
19 44 57 62 83 l31 49 -31 64 c-18 35 -35 64 -40 64 -4 0 -25 -17 -45 -38z"/>
<path d="M3277 1562 c-19 -30 -19 -100 0 -143 23 -49 95 -141 129 -164 l22
-14 -6 87 c-5 85 -6 88 -48 137 -24 27 -54 63 -67 79 -15 18 -26 25 -30 18z"/>
<path d="M3887 1523 c-19 -26 -49 -61 -66 -77 -30 -29 -31 -33 -31 -113 0 -46
4 -83 9 -83 15 0 80 80 121 150 38 62 39 67 28 110 -6 25 -14 49 -18 53 -4 5
-23 -13 -43 -40z"/>
<path d="M3240 1355 c0 -38 8 -76 21 -105 21 -46 114 -150 135 -150 6 0 17 20
24 45 l13 45 -50 44 c-28 25 -67 71 -89 103 -21 32 -42 62 -46 68 -4 5 -8 -18
-8 -50z"/>
<path d="M3933 1359 c-17 -31 -59 -81 -94 -112 l-62 -56 13 -46 c7 -25 17 -48
21 -51 16 -9 110 95 135 151 19 42 24 67 22 112 l-3 58 -32 -56z"/>
<path d="M3235 1205 c29 -136 88 -236 175 -296 30 -21 58 -39 62 -39 4 0 -6
21 -22 47 -17 26 -35 66 -41 88 -8 28 -25 53 -61 84 -27 24 -65 67 -84 95 -31
45 -34 47 -29 21z"/>
<path d="M3937 1167 c-21 -30 -57 -68 -82 -86 -28 -20 -47 -43 -51 -59 -13
-61 -27 -94 -51 -122 -51 -61 23 -19 100 57 27 26 60 69 73 95 23 45 57 158
51 165 -2 2 -20 -21 -40 -50z"/>
</g>
</svg>
